<?xml version="1.0" encoding="UTF-8"?>
<svg id="taxaid" xmlns="http://www.w3.org/2000/svg" viewBox="0 0 236.56 70">
  <defs>
    <style>
      .cls-1 {
        fill: #c1c1c0;
      }

      .cls-2 {
        fill: #8d8f8f;
      }

      .cls-3 {
        fill: #6d6e6d;
      }

      .cls-4 {
        fill: #b31f29;
      }
    </style>
  </defs>
  <path class="cls-3" d="M5,42.45l-.06-23h23.12l-.12-5H4.56S-.06,14.51,0,18.76l.06,23.56"/>
  <polyline class="cls-3" points="9.06 42.45 9.06 23.45 28 23.45 28.06 26.32 12 26.38 12 42.45"/>
  <polyline class="cls-3" points="16.06 42.38 16.06 30.45 28 30.45 28.06 32.45 18 32.51 18 42.45"/>
  <polygon class="cls-1" points="22.05 37.46 22.08 39.45 34.05 39.48 34.06 27.51 32.06 27.57 32.05 37.46 22.05 37.46"/>
  <polyline class="cls-1" points="38.06 43.46 22.08 43.48 22.06 46.45 41.06 46.45 41.06 27.45 38.08 27.48"/>
  <path class="cls-1" d="M45.06,50.45l-23,.03v4.97h23.97s3.97.09,4-4v-24l-4.94.03"/>
  <path class="cls-2" d="M46,14.45s4.03-.22,4.03,3.5v7.47l-19.94.03-.03-10.97"/>
  <path class="cls-4" d="M3.09,55.41s-3,.03-3.03-2.97v-8h20v11"/>
  <path class="cls-4" d="M61.98,51.45l21.58-.08v-.92h-3.5s-1.94-.03-1.94-2.06l-.12-27.88h2.19s1.62,0,2.84,1.97c1.22,1.97,6.06,10.94,6.06,10.94l.91.03v-14l-34.94.03-.06,13.94h1.06l6-10.53s.91-2.34,2.97-2.41c1.34-.04,1.98-.02,1.98-.02l.11.02-.03,28.03s-.03,1.94-1.97,1.91c-1.94-.03-3.09.06-3.09.06"/>
  <path class="cls-4" d="M99.05,43.48s.83-3.08,4.55-3.03l-.25-.94s-5.37-.41-9.23,1.2c0,0-2.92,1.84-3,3.72-.08,1.88.03.08.03.08l-.02,3.44s.11,3.47,3.95,3.48l5.98-.08s1.69-.41,3.03-1.95l-.06-1.02-.87-.08s-.97,1.73-2.17,1.67c0,0-1.98.34-1.98-1.56"/>
  <path class="cls-4" d="M101.13,35.16c0,2.4-2.11,4.34-4.7,4.34s-4.7-1.94-4.7-4.34,2.11-4.34,4.7-4.34,4.7,1.94,4.7,4.34Z"/>
  <path class="cls-4" d="M93.81,31.57s9.71-7.25,18.29,2v.25s.04,14.08.04,14.08c0,0,1.37,2.5,2.89.04l.06-3.09.97-.03v3.31s-.56,2.81-3.97,3.31h-5.81s-2.41.31-2.66-1.81l-.56-.69.06-17.25s-1.81-1.72-5.41-.09"/>
  <path class="cls-4" d="M115,30.38v1.06h1.94l11.75,17.75s.31,1.31-1,1.25l-1.62.04v.96l15.02.04-.04-1.06-1.73-.04-11.69-17.88s-.12-1.06,1.06-1.06h1.75l.02-1.02"/>
  <path class="cls-4" d="M122.94,51.45v-.94l-.94-.06s-.94.06-1-1.19l15.31-16.81s.94-1.04,1.62-.98l1.67-.04v-.92l-7.21-.06.02.98,2.15.06-15.56,17.83s-.37.94-2,1.06h-.94v1"/>
  <path class="cls-4" d="M150.13,51.38v-.94h3.44s1.38.31,2.12-1.94l10.12-29.06.81.69-3.31,9.75-6.19,18.62s-.37,1.94,1.56,1.94h2.62v1"/>
  <path class="cls-4" d="M165.19,51.45v-1h3.06s1.81,0,1.94-1.88l-7.19-19.25,2.81-9.88,4.38.06,10.94,28.94s.06,1.81,1.94,1.94h1.31l-.02,1.1"/>
  <polyline class="cls-4" points="168.63 41.45 158.88 41.51 159.25 40.38 168.06 40.45"/>
  <path class="cls-4" d="M185.56,30.45v.94l1.5.12s1-.25.94,1.44l.15,16.12s-.08,1.4-1.46,1.33l-1.19.04-.02.96,14.17.08-.04-1.04-1.29.04s-1.06-.17-1.25-1.48c-.19-1.31-.06-17.56-.06-17.56l-1.06-.94"/>
  <ellipse class="cls-4" cx="191.71" cy="23.72" rx="5.06" ry="4.6"/>
  <path class="cls-4" d="M213.81,51.4l-6.33.04s-6.42-.63-6.42-7.08l-.04-6.42s.62-8.17,7-8.12l5-.08s3.17.29,3.08,1.79l.25,1.79-.29.17s.46-2.46-3.08-2.33c0,0-3.92-.29-3.92,5.38l-.04,8.04s-.08,5.83,3,5.96h2.04s2,0,2-3l1-1.21.33,2.62-1.25,1.08s.08,1.21-2.33,1.38Z"/>
  <path class="cls-4" d="M211.35,19.45l-.04,1,2.71-.04s2.04,0,2.04,2.04l-.12,26.75v.92s-.08,1.29,1.46,1.33l10-.04v-1s-1.46,0-1.46,0c0,0-1.62.17-1.67-1.5l-.08-28.5-.96-.92"/>
  <polyline class="cls-4" points="151.06 37.45 139.48 37.45 139.52 44.11 150.98 44.11"/>
</svg>