<?xml version="1.0" encoding="UTF-8"?>
<svg id="taxaid" xmlns="http://www.w3.org/2000/svg" viewBox="0 0 234.92 70">
  <defs>
    <style>
      .cls-1 {
        fill: #c1c1c0;
      }

      .cls-2 {
        fill: #8d8f8f;
      }

      .cls-3 {
        fill: #6d6e6d;
      }

      .cls-4 {
        fill: #b31f29;
      }
    </style>
  </defs>
  <path class="cls-3" d="M96.62,42.45l-.06-23h23.12l-.12-5h-23.38s-4.62.06-4.56,4.31l.06,23.56"/>
  <polyline class="cls-3" points="100.69 42.45 100.69 23.45 119.62 23.45 119.69 26.32 103.62 26.38 103.62 42.45"/>
  <polyline class="cls-3" points="107.69 42.38 107.69 30.45 119.62 30.45 119.69 32.45 109.62 32.51 109.62 42.45"/>
  <polygon class="cls-1" points="113.67 37.46 113.7 39.45 125.67 39.48 125.69 27.51 123.69 27.57 123.67 37.46 113.67 37.46"/>
  <polyline class="cls-1" points="129.69 43.46 113.7 43.48 113.69 46.45 132.69 46.45 132.69 27.45 129.7 27.48"/>
  <path class="cls-1" d="M136.69,50.45l-23,.03v4.97h23.97s3.97.09,4-4v-24l-4.94.03"/>
  <path class="cls-2" d="M137.62,14.45s4.03-.22,4.03,3.5v7.47l-19.94.03-.03-10.97"/>
  <path class="cls-4" d="M94.72,55.41s-3,.03-3.03-2.97v-8h20v11"/>
</svg>