<?xml version="1.0" encoding="UTF-8"?>
<svg xmlns="http://www.w3.org/2000/svg" viewBox="0 0 239.5 70">
  <defs>
    <style>
      .cls-1 {
        fill: #231f20;
        font-family: CenturyGothic, 'Century Gothic';
        font-size: 12px;
      }

      .cls-2 {
        fill: #c1c1c0;
      }

      .cls-3 {
        fill: #8d8f8f;
      }

      .cls-4 {
        fill: #6d6e6d;
      }

      .cls-5 {
        fill: #b31f29;
      }
    </style>
  </defs>
  <g id="logo">
    <path class="cls-4" d="M7.94,32l-.06-23h23.12l-.12-5H7.5s-4.62.06-4.56,4.31l.06,23.56"/>
    <polyline class="cls-4" points="12 32 12 13 30.94 13 31 15.88 14.94 15.94 14.94 32"/>
    <polyline class="cls-4" points="19 31.94 19 20 30.94 20 31 22 20.94 22.06 20.94 32"/>
    <polygon class="cls-2" points="24.98 27.02 25.02 29 36.98 29.03 37 17.06 35 17.12 34.98 27.02 24.98 27.02"/>
    <polyline class="cls-2" points="41 33.02 25.02 33.03 25 36 44 36 44 17 41.02 17.03"/>
    <path class="cls-2" d="M48,40l-23,.03v4.97h23.97s3.97.09,4-4v-24l-4.94.03"/>
    <path class="cls-3" d="M48.94,4s4.03-.22,4.03,3.5v7.47l-19.94.03-.03-10.97"/>
    <path class="cls-5" d="M6.03,44.97s-3,.03-3.03-2.97v-8h20v11"/>
  </g>
  <g id="description">
    <text class="cls-1" transform="translate(2.33 63.17)"><tspan x="0" y="0">TAXATION AND ACCOUNTING SERVICES</tspan></text>
  </g>
  <g id="taxaid">
    <path class="cls-5" d="M64.92,41l21.58-.08v-.92h-3.5s-1.94-.03-1.94-2.06l-.12-27.88h2.19s1.62,0,2.84,1.97c1.22,1.97,6.06,10.94,6.06,10.94l.91.03v-14l-34.94.03-.06,13.94h1.06l6-10.53s.91-2.34,2.97-2.41c1.34-.04,1.98-.02,1.98-.02l.11.02-.03,28.03s-.03,1.94-1.97,1.91c-1.94-.03-3.09.06-3.09.06"/>
    <path class="cls-5" d="M101.98,33.03s.83-3.08,4.55-3.03l-.25-.94s-5.37-.41-9.23,1.2c0,0-2.92,1.84-3,3.72-.08,1.88.03.08.03.08l-.02,3.44s.11,3.47,3.95,3.48l5.98-.08s1.69-.41,3.03-1.95l-.06-1.02-.87-.08s-.97,1.73-2.17,1.67c0,0-1.98.34-1.98-1.56"/>
    <path class="cls-5" d="M104.06,24.72c0,2.4-2.11,4.34-4.7,4.34s-4.7-1.94-4.7-4.34,2.11-4.34,4.7-4.34,4.7,1.94,4.7,4.34Z"/>
    <path class="cls-5" d="M96.75,21.12s9.71-7.25,18.29,2v.25s.04,14.08.04,14.08c0,0,1.37,2.5,2.89.04l.06-3.09.97-.03v3.31s-.56,2.81-3.97,3.31h-5.81s-2.41.31-2.66-1.81l-.56-.69.06-17.25s-1.81-1.72-5.41-.09"/>
    <path class="cls-5" d="M117.94,19.94v1.06h1.94l11.75,17.75s.31,1.31-1,1.25l-1.62.04v.96l15.02.04-.04-1.06-1.73-.04-11.69-17.88s-.12-1.06,1.06-1.06h1.75l.02-1.02"/>
    <path class="cls-5" d="M125.88,41v-.94l-.94-.06s-.94.06-1-1.19l15.31-16.81s.94-1.04,1.62-.98l1.67-.04v-.92l-7.21-.06.02.98,2.15.06-15.56,17.83s-.37.94-2,1.06h-.94v1"/>
    <path class="cls-5" d="M153.06,40.94v-.94h3.44s1.38.31,2.12-1.94l10.12-29.06.81.69-3.31,9.75-6.19,18.62s-.37,1.94,1.56,1.94h2.62v1"/>
    <path class="cls-5" d="M168.12,41v-1h3.06s1.81,0,1.94-1.88l-7.19-19.25,2.81-9.88,4.38.06,10.94,28.94s.06,1.81,1.94,1.94h1.31l-.02,1.1"/>
    <polyline class="cls-5" points="171.56 31 161.81 31.06 162.19 29.94 171 30"/>
    <path class="cls-5" d="M188.5,20v.94l1.5.12s1-.25.94,1.44l.15,16.12s-.08,1.4-1.46,1.33l-1.19.04-.02.96,14.17.08-.04-1.04-1.29.04s-1.06-.17-1.25-1.48c-.19-1.31-.06-17.56-.06-17.56l-1.06-.94"/>
    <ellipse class="cls-5" cx="194.65" cy="13.27" rx="5.06" ry="4.6"/>
    <path class="cls-5" d="M216.75,40.96l-6.33.04s-6.42-.63-6.42-7.08l-.04-6.42s.62-8.17,7-8.12l5-.08s3.17.29,3.08,1.79l.25,1.79-.29.17s.46-2.46-3.08-2.33c0,0-3.92-.29-3.92,5.38l-.04,8.04s-.08,5.83,3,5.96h2.04s2,0,2-3l1-1.21.33,2.62-1.25,1.08s.08,1.21-2.33,1.38Z"/>
    <path class="cls-5" d="M214.29,9l-.04,1,2.71-.04s2.04,0,2.04,2.04l-.12,26.75v.92s-.08,1.29,1.46,1.33l10-.04v-1s-1.46,0-1.46,0c0,0-1.62.17-1.67-1.5l-.08-28.5-.96-.92"/>
    <polyline class="cls-5" points="154 27 142.42 27 142.46 33.67 153.92 33.67"/>
  </g>
</svg>